<?xml version="1.0" encoding="UTF-8" standalone="no"?>
<svg
   xmlns:dc="http://purl.org/dc/elements/1.1/"
   xmlns:cc="http://creativecommons.org/ns#"
   xmlns:rdf="http://www.w3.org/1999/02/22-rdf-syntax-ns#"
   xmlns:svg="http://www.w3.org/2000/svg"
   xmlns="http://www.w3.org/2000/svg"
   xmlns:sodipodi="http://sodipodi.sourceforge.net/DTD/sodipodi-0.dtd"
   xmlns:inkscape="http://www.inkscape.org/namespaces/inkscape"
   version="1.1"
   x="0px"
   y="0px"
   viewBox="0 0 48 48"
   enable-background="new 0 0 24 24"
   xml:space="preserve"
   id="svg4542"
   inkscape:version="0.48.4 r9939"
   width="100%"
   height="100%"
   sodipodi:docname="noun_394975_cc.svg"><metadata
     id="metadata4554"><rdf:RDF><cc:Work
         rdf:about=""><dc:format>image/svg+xml</dc:format><dc:type
           rdf:resource="http://purl.org/dc/dcmitype/StillImage" /><dc:title></dc:title></cc:Work></rdf:RDF></metadata><defs
     id="defs4552" /><sodipodi:namedview
     pagecolor="#ffffff"
     bordercolor="#666666"
     borderopacity="1"
     objecttolerance="10"
     gridtolerance="10"
     guidetolerance="10"
     inkscape:pageopacity="0"
     inkscape:pageshadow="2"
     inkscape:window-width="1920"
     inkscape:window-height="1020"
     id="namedview4550"
     showgrid="false"
     inkscape:zoom="7.8666667"
     inkscape:cx="12"
     inkscape:cy="15"
     inkscape:window-x="0"
     inkscape:window-y="30"
     inkscape:window-maximized="1"
     inkscape:current-layer="svg4542" /><path
     d="m 14.32487,28.437159 c 1.596115,-1.995163 3.192231,-3.591294 4.788346,-4.788391 2.992715,-2.593712 5.586403,-3.591293 5.586403,-3.591293 0,0 -1.396601,2.194679 -3.59126,5.386939 -0.399028,0.798066 -0.997572,1.596131 -1.596115,2.593712 -0.598542,0.798066 -0.997572,1.795647 -1.596115,2.793228 -0.598543,0.997581 -0.997572,1.995163 -1.596115,2.992745 -0.399029,0.997581 -1.197086,2.194679 -1.596116,3.192261 -0.399028,0.99758 -0.997571,2.194678 -1.3966,3.19226 -0.199515,0.399032 -0.399029,0.997581 -0.598544,1.396614 6.583976,3.79081 15.362608,2.992744 20.749498,-2.793229 C 43.453971,28.038126 34.675338,23.449251 43.853,4.4952032 c 0,0 -20.350468,-4.18984191 -34.9150187,10.1753318 -6.5839751,6.584038 -6.5839751,17.1584 0,23.941954 0.3990288,-1.197097 0.7980575,-2.394195 1.3966007,-3.591293 0.997572,-2.394195 2.394172,-4.788391 3.990288,-6.584037 z"
     id="path4544"
     inkscape:connector-curvature="0"
     style="fill:#dddddd;fill-opacity:1" /></svg>