<?xml version="1.0" encoding="UTF-8" standalone="no"?>
<svg
   xmlns:dc="http://purl.org/dc/elements/1.1/"
   xmlns:cc="http://creativecommons.org/ns#"
   xmlns:rdf="http://www.w3.org/1999/02/22-rdf-syntax-ns#"
   xmlns:svg="http://www.w3.org/2000/svg"
   xmlns="http://www.w3.org/2000/svg"
   xmlns:sodipodi="http://sodipodi.sourceforge.net/DTD/sodipodi-0.dtd"
   xmlns:inkscape="http://www.inkscape.org/namespaces/inkscape"
   version="1.1"
   x="0px"
   y="0px"
   viewBox="0 0 48 48"
   enable-background="new 0 0 24 24"
   xml:space="preserve"
   id="svg3947"
   inkscape:version="0.48.4 r9939"
   width="100%"
   height="100%"
   sodipodi:docname="noun_394927_cc.svg"><metadata
     id="metadata3959"><rdf:RDF><cc:Work
         rdf:about=""><dc:format>image/svg+xml</dc:format><dc:type
           rdf:resource="http://purl.org/dc/dcmitype/StillImage" /><dc:title></dc:title></cc:Work></rdf:RDF></metadata><defs
     id="defs3957" /><sodipodi:namedview
     pagecolor="#ffffff"
     bordercolor="#666666"
     borderopacity="1"
     objecttolerance="10"
     gridtolerance="10"
     guidetolerance="10"
     inkscape:pageopacity="0"
     inkscape:pageshadow="2"
     inkscape:window-width="1920"
     inkscape:window-height="1020"
     id="namedview3955"
     showgrid="false"
     inkscape:zoom="14.760582"
     inkscape:cx="11.998314"
     inkscape:cy="22.350601"
     inkscape:window-x="0"
     inkscape:window-y="30"
     inkscape:window-maximized="1"
     inkscape:current-layer="svg3947" /><path
     d="m 38,40 h 0.2 c 2.4,-10.6 2.4,-21.4 0,-32.0000003 1,0 1.8,-1 1.8,-2.0000002 0,-1.2 -0.8,-2 -2,-2 H 9.9999996 C 8.8,3.9999995 8,4.7999995 8,5.9999995 8,6.9999997 8.8,7.7999997 9.8,7.9999997 7.4,18.6 7.4,29.4 9.8,40 H 9.9999996 C 8.8,40 8,40.8 8,42 c 0,1.2 0.8,2 1.9999996,2 H 38 c 1.2,0 2,-0.8 2,-2 0,-1.2 -0.8,-2 -2,-2 z M 18,31.8 c 3.2,-3 6.2,-6.6 8,-9.8 l 0,0 c -3.2,1.8 -6.8,4.6 -9.8,8 -1,-9.6 5.6,-15.6 15.4,-13.6 l 0,0 c 2,9.8 -4.2,16.4 -13.6,15.4 z"
     id="path3949"
     style="fill:#dddddd;fill-opacity:1"
     inkscape:connector-curvature="0" /></svg>